<?xml version="1.0" standalone="no"?>
<!DOCTYPE svg PUBLIC "-//W3C//DTD SVG 20010904//EN"
 "http://www.w3.org/TR/2001/REC-SVG-20010904/DTD/svg10.dtd">
<svg version="1.0" xmlns="http://www.w3.org/2000/svg"
 width="700.000000pt" height="700.000000pt" viewBox="0 0 700.000000 700.000000"
 preserveAspectRatio="xMidYMid meet">
<metadata>
Created by potrace 1.14, written by Peter Selinger 2001-2017
</metadata>
<g transform="translate(0.000000,700.000000) scale(0.100000,-0.100000)"
fill="#000000" stroke="none">
<path d="M3128 6995 c-1 -2 -41 -6 -88 -10 -47 -3 -92 -8 -100 -10 -8 -2 -40
-7 -70 -10 -80 -9 -102 -13 -245 -44 -411 -91 -774 -247 -1145 -496 -85 -57
-164 -112 -175 -122 -11 -10 -52 -43 -91 -75 -39 -31 -121 -105 -183 -164
-454 -435 -786 -1009 -935 -1614 -27 -111 -28 -116 -51 -250 -32 -192 -40
-306 -40 -560 1 -195 7 -342 20 -422 2 -13 6 -44 9 -69 80 -586 329 -1148 725
-1639 160 -199 427 -449 646 -606 222 -159 527 -322 780 -416 142 -53 292 -97
460 -134 98 -22 304 -52 430 -63 95 -9 546 -6 605 3 19 3 58 7 85 10 28 3 67
7 88 10 20 4 52 8 70 11 47 6 131 24 227 47 47 11 90 21 95 22 16 4 156 46
201 61 188 62 487 205 674 321 105 65 292 194 310 214 3 3 39 32 80 65 73 58
307 286 386 375 237 269 452 624 602 995 70 175 148 463 178 665 3 19 9 62 14
95 32 206 34 673 5 875 -2 14 -7 50 -10 80 -8 62 -9 67 -30 170 -8 41 -17 84
-19 95 -17 89 -92 332 -137 443 -106 267 -236 510 -393 732 -459 650 -1150
1126 -1916 1319 -99 25 -167 38 -325 66 -16 2 -59 7 -95 11 -36 3 -78 8 -95
11 -34 5 -542 13 -547 8z m2 -668 c45 -31 59 -62 36 -85 -14 -14 -10 -18 42
-38 31 -13 66 -34 76 -46 l20 -23 28 28 c23 23 30 26 46 16 11 -7 27 -35 37
-63 38 -106 79 -101 171 19 21 28 25 38 14 45 -19 12 29 40 80 47 48 7 73 -11
91 -65 10 -30 9 -37 -5 -47 -14 -11 -15 -14 -1 -25 19 -16 20 -84 1 -99 -22
-19 -66 -15 -116 8 -80 37 -118 23 -160 -59 -50 -98 -114 -141 -213 -141 -48
-1 -59 -4 -69 -22 -6 -12 -30 -47 -53 -77 -64 -83 -65 -86 -80 -209 -4 -33 -3
-51 3 -47 25 15 96 -84 79 -111 -3 -5 27 -6 66 -5 40 2 96 -1 125 -8 71 -16
171 -62 203 -94 21 -21 31 -25 50 -18 28 11 97 -3 120 -24 9 -8 24 -36 33 -62
10 -26 21 -55 27 -64 5 -10 9 -23 9 -29 0 -6 13 -30 30 -54 46 -66 92 -68 167
-8 l22 18 -29 44 c-33 48 -40 109 -17 133 8 7 37 29 65 48 54 37 83 79 75 111
-3 10 -29 39 -59 64 -30 26 -54 50 -54 54 0 4 13 28 30 53 25 38 28 49 20 76
-5 18 -7 32 -4 32 2 0 -2 12 -9 28 -16 31 -15 56 4 79 11 12 27 14 84 9 109
-9 133 -15 235 -58 100 -42 161 -79 142 -86 -8 -2 -7 -11 4 -27 8 -13 14 -38
12 -56 -3 -29 1 -33 32 -44 19 -6 36 -19 38 -28 4 -22 9 -21 62 9 24 14 52 23
62 21 12 -4 27 7 46 34 43 61 69 62 98 1 9 -20 36 -56 59 -81 28 -31 46 -63
55 -96 25 -97 67 -131 149 -120 37 5 50 3 61 -10 10 -12 15 -13 21 -3 6 9 10
7 14 -7 17 -55 41 -90 65 -94 33 -4 39 -17 33 -60 -8 -50 -17 -58 -85 -77 -48
-14 -71 -28 -113 -69 -51 -51 -52 -52 -74 -34 -30 24 -81 38 -125 34 -221 -22
-376 -80 -405 -153 -6 -15 -16 -38 -21 -51 -8 -19 1 -14 38 21 87 82 179 112
249 83 59 -25 34 -67 -39 -67 -24 0 -36 -3 -28 -6 27 -9 70 -43 65 -51 -2 -5
4 -16 15 -26 11 -10 20 -28 20 -41 0 -30 -53 -70 -105 -80 -21 -4 -48 -15 -59
-26 -11 -10 -45 -30 -76 -44 -30 -15 -66 -31 -79 -37 -27 -13 -41 -44 -41 -92
0 -29 -5 -36 -42 -53 -24 -11 -61 -26 -83 -33 -60 -18 -86 -38 -76 -57 12 -21
-5 -57 -34 -70 -17 -8 -30 -7 -51 4 -26 14 -30 13 -41 -2 -7 -10 -13 -23 -13
-30 0 -6 -6 -17 -14 -23 -10 -8 -13 -23 -9 -47 4 -25 2 -34 -8 -34 -8 0 3 -11
24 -25 42 -29 45 -40 17 -57 -13 -9 -20 -24 -20 -45 0 -47 -54 -112 -125 -150
-33 -18 -68 -33 -77 -33 -20 0 -83 -72 -96 -109 -15 -42 6 -93 43 -105 17 -6
32 -11 34 -13 2 -2 5 -29 7 -60 2 -32 5 -95 8 -140 5 -90 -5 -116 -44 -106
-33 9 -57 48 -85 141 -15 48 -36 104 -46 124 -19 36 -19 37 -49 22 -28 -14
-32 -14 -63 10 -19 15 -66 34 -105 44 -61 16 -74 16 -97 4 -35 -18 -67 -12
-81 16 -19 38 -22 35 -12 -13 7 -34 7 -50 -2 -60 -16 -20 -50 -19 -79 1 -25
18 -83 20 -147 6 -21 -5 -51 -8 -66 -7 -22 2 -26 -1 -17 -11 17 -20 3 -44 -24
-44 -16 0 -41 -17 -70 -47 -44 -45 -45 -47 -33 -82 13 -38 13 -68 1 -171 -22
-180 1 -278 87 -376 39 -45 65 -55 152 -59 107 -5 132 10 162 100 32 95 72
126 155 120 78 -6 82 -37 23 -156 -31 -62 -46 -126 -48 -209 -1 -31 2 -35 24
-34 39 2 40 3 40 24 0 24 8 25 32 3 22 -20 74 -19 98 2 16 14 20 12 59 -38 68
-89 102 -217 58 -223 -54 -8 -56 -41 -5 -136 49 -93 117 -127 193 -98 l27 10
-7 -46 c-14 -103 -67 -124 -129 -52 -20 23 -36 48 -36 55 0 10 -5 11 -17 5
-11 -7 -23 -3 -42 13 -14 12 -50 42 -80 66 -52 43 -133 159 -146 211 -6 22
-12 24 -63 25 -94 0 -174 40 -258 127 -82 84 -103 93 -189 73 -84 -19 -115
-14 -203 34 -42 23 -120 65 -172 93 -150 81 -159 92 -184 228 -8 43 -23 94
-32 114 -19 41 -106 130 -135 139 -11 4 -19 16 -19 28 -1 26 -58 104 -159 217
-76 85 -114 154 -109 193 2 17 -6 26 -42 44 -25 12 -47 20 -49 18 -2 -2 2 -28
9 -57 11 -44 47 -115 100 -198 6 -8 30 -55 54 -105 49 -100 63 -160 40 -169
-16 -6 -30 16 -37 59 -8 48 -15 58 -55 84 -70 46 -82 61 -75 93 5 24 -2 41
-36 88 -22 33 -41 64 -41 70 0 6 -11 27 -24 48 -14 20 -36 66 -50 102 -33 81
-53 105 -141 163 -47 31 -87 68 -122 114 -51 67 -79 121 -68 131 3 3 -9 14
-26 24 -59 36 -87 143 -83 323 2 136 5 162 23 207 8 20 6 34 -5 57 -18 37 -23
103 -7 108 6 2 25 -9 41 -25 27 -27 33 -28 50 -16 11 7 22 23 25 35 9 33 -69
109 -185 180 -80 49 -98 65 -93 80 3 10 1 28 -5 39 -9 17 -17 20 -41 15 -22
-5 -29 -3 -30 9 -3 40 -19 76 -33 76 -7 0 -20 8 -29 18 -16 17 -14 23 40 103
95 142 201 268 337 404 151 151 165 163 308 270 166 125 311 208 371 213 64 5
119 -16 177 -68 47 -42 59 -39 42 10 -8 21 -7 31 2 39 30 25 85 39 144 38 34
-1 62 0 62 2 0 6 -46 66 -66 85 -8 9 -20 13 -26 10 -5 -4 -33 -8 -61 -9 -36
-2 -83 -17 -155 -50 -56 -25 -108 -45 -114 -43 -20 7 356 179 390 178 4 0 26
-17 49 -38 33 -28 40 -41 33 -52 -20 -30 -11 -77 17 -100 25 -19 36 -21 98
-15 77 6 102 7 185 5 30 -1 61 0 69 2 8 2 19 -13 27 -37 34 -99 60 -114 51
-32 -3 30 -2 59 1 64 4 6 33 22 65 36 31 14 57 30 57 36 0 14 -49 51 -79 58
-14 3 -44 15 -66 26 -63 31 -70 53 -29 94 24 24 31 25 90 20 47 -3 76 -12 104
-30z m1261 -4198 c13 -20 11 -42 -6 -82 -17 -40 -21 -87 -6 -71 5 5 11 26 14
47 11 88 75 120 147 75 19 -12 64 -36 100 -54 36 -18 76 -41 89 -52 24 -20 25
-20 69 4 71 38 108 32 186 -26 37 -27 87 -62 111 -77 35 -22 85 -81 77 -90
-13 -16 43 -42 163 -75 l50 -14 -65 -65 c-151 -149 -280 -253 -445 -361 -122
-80 -349 -200 -440 -233 -27 -10 -54 -22 -60 -26 -29 -21 -370 -118 -475 -135
-19 -3 -38 -8 -42 -10 -4 -2 -10 5 -13 17 -13 41 -7 90 18 137 41 78 42 89 11
115 -21 18 -26 32 -26 64 1 56 29 105 105 185 35 37 68 83 74 102 10 33 10 94
0 151 -10 53 -17 109 -22 170 -3 33 -7 74 -9 92 l-4 32 45 -20 c24 -10 46 -19
47 -19 1 0 13 23 25 50 23 50 42 68 182 162 42 28 85 31 100 7z"/>
</g>
</svg>
